<?xml version="1.0" encoding="UTF-8" standalone="no"?>
<!-- Uploaded to: SVG Repo, www.svgrepo.com, Generator: SVG Repo Mixer Tools -->

<svg
   fill="#000000"
   height="1000"
   width="1000"
   version="1.1"
   id="Capa_1"
   viewBox="0 0 371.25 371.25"
   xml:space="preserve"
   xmlns="http://www.w3.org/2000/svg"
   xmlns:svg="http://www.w3.org/2000/svg"
   xmlns:rdf="http://www.w3.org/1999/02/22-rdf-syntax-ns#"
   xmlns:cc="http://creativecommons.org/ns#"
   xmlns:dc="http://purl.org/dc/elements/1.1/"><title
   id="title8">Royal Flush Logo</title><defs
   id="defs2" />

<g
   id="g2"
   style="display:none;opacity:1;stroke:#ffffff;stroke-width:2.97;stroke-linecap:round;stroke-linejoin:round;stroke-dasharray:none;stroke-opacity:1"
   transform="translate(35.826744,36.769553)">
	
	
	
<g
   id="g5"
   style="stroke:#ffffff;stroke-width:2.97;stroke-linecap:round;stroke-linejoin:round;stroke-dasharray:none;stroke-opacity:1"
   transform="translate(1.298256,0.355447)"><path
     d="m 255.5,20 c 0,-11.046 -8.954,-20 -20,-20 h -174 c -11.046,0 -20,8.954 -20,20 v 257 c 0,11.046 8.954,20 20,20 h 174 c 11.046,0 20,-8.954 20,-20 z M 94.379,59 H 82.875 l -2.229,7 H 74.005 L 85.283,33 h 6.731 l 11.232,33 h -6.641 z m 85.447,123.298 c -10.133,3.238 -19.307,0.113 -25.128,-5.942 0.457,8.457 1.704,18.841 4.947,24.645 H 138.02 c 3.243,-5.804 4.49,-16.188 4.947,-24.645 -5.821,6.056 -14.996,9.181 -25.128,5.942 -17.925,-5.729 -36.695,-44.207 30.993,-87.401 67.69,43.194 48.92,81.671 30.994,87.401 z m 37.281,81.702 -2.229,-7 h -11.504 l -2.229,7 h -6.641 l 11.278,-33 h 6.731 l 11.232,33 z"
     id="path1"
     style="fill:#000000;fill-opacity:1;stroke:#ffffff;stroke-width:2.97;stroke-linecap:round;stroke-linejoin:round;stroke-dasharray:none;stroke-opacity:1" /><rect
     style="fill:#000000;fill-opacity:1;stroke:none;stroke-width:2.97;stroke-linecap:round;stroke-linejoin:round;stroke-dasharray:none;stroke-opacity:1"
     id="rect4"
     width="46.333332"
     height="46"
     x="67.333336"
     y="28" /><rect
     style="fill:#000000;fill-opacity:1;stroke:none;stroke-width:2.97;stroke-linecap:round;stroke-linejoin:round;stroke-dasharray:none;stroke-opacity:1"
     id="rect5"
     width="38"
     height="49.333332"
     x="190"
     y="225.33334" /><rect
     style="fill:#000000;fill-opacity:1;stroke:none;stroke-width:9.26287;stroke-linecap:round;stroke-linejoin:round;stroke-dasharray:none;stroke-opacity:1"
     id="rect13"
     width="130.39528"
     height="139.843"
     x="84.876793"
     y="78.255135" /></g></g><rect
   style="display:none;fill:#2b0000;fill-opacity:1;stroke:none;stroke-width:2.97;stroke-linecap:round;stroke-linejoin:round;stroke-dasharray:none;stroke-opacity:1"
   id="rect18"
   width="317.25525"
   height="334.6972"
   x="34.883934"
   y="22.627417" /><g
   id="g8"
   style="display:none;opacity:0">
	
	
	
<g
   id="g7"><path
     d="m 255.5,20 c 0,-11.046 -8.954,-20 -20,-20 h -174 c -11.046,0 -20,8.954 -20,20 v 257 c 0,11.046 8.954,20 20,20 h 174 c 11.046,0 20,-8.954 20,-20 z M 94.379,59 H 82.875 l -2.229,7 H 74.005 L 85.283,33 h 6.731 l 11.232,33 h -6.641 z m 85.447,123.298 c -10.133,3.238 -19.307,0.113 -25.128,-5.942 0.457,8.457 1.704,18.841 4.947,24.645 H 138.02 c 3.243,-5.804 4.49,-16.188 4.947,-24.645 -5.821,6.056 -14.996,9.181 -25.128,5.942 -17.925,-5.729 -36.695,-44.207 30.993,-87.401 67.69,43.194 48.92,81.671 30.994,87.401 z m 37.281,81.702 -2.229,-7 h -11.504 l -2.229,7 h -6.641 l 11.278,-33 h 6.731 l 11.232,33 z"
     id="path5"
     style="fill:#000000;fill-opacity:1" /><rect
     style="fill:#000000;fill-opacity:1;stroke-width:0.37125"
     id="rect6"
     width="46.333332"
     height="46"
     x="67.333336"
     y="28" /><rect
     style="fill:#000000;fill-opacity:1;stroke-width:0.37125"
     id="rect7"
     width="38"
     height="49.333332"
     x="190"
     y="225.33334" /></g></g><g
   id="g35"
   style="display:inline"><g
     id="g38"
     style="display:none;fill:#2b0000;stroke:#ffffff;stroke-width:2.97;stroke-linecap:round;stroke-linejoin:round;stroke-dasharray:none;stroke-opacity:1"
     transform="matrix(-0.65742696,0.25308529,0.27063638,0.70301855,174.64023,60.978499)">
	
	
	
<g
   id="g37"
   style="fill:#2b0000;stroke:#ffffff;stroke-width:2.97;stroke-linecap:round;stroke-linejoin:round;stroke-dasharray:none;stroke-opacity:1"
   transform="translate(1.298256,0.355447)"><path
     d="m 255.5,20 c 0,-11.046 -8.954,-20 -20,-20 h -174 c -11.046,0 -20,8.954 -20,20 v 257 c 0,11.046 8.954,20 20,20 h 174 c 11.046,0 20,-8.954 20,-20 z M 94.379,59 H 82.875 l -2.229,7 H 74.005 L 85.283,33 h 6.731 l 11.232,33 h -6.641 z m 85.447,123.298 c -10.133,3.238 -19.307,0.113 -25.128,-5.942 0.457,8.457 1.704,18.841 4.947,24.645 H 138.02 c 3.243,-5.804 4.49,-16.188 4.947,-24.645 -5.821,6.056 -14.996,9.181 -25.128,5.942 -17.925,-5.729 -36.695,-44.207 30.993,-87.401 67.69,43.194 48.92,81.671 30.994,87.401 z m 37.281,81.702 -2.229,-7 h -11.504 l -2.229,7 h -6.641 l 11.278,-33 h 6.731 l 11.232,33 z"
     id="path35"
     style="fill:#2b0000;fill-opacity:1;stroke:#ffffff;stroke-width:2.97;stroke-linecap:round;stroke-linejoin:round;stroke-dasharray:none;stroke-opacity:1" /><rect
     style="fill:#2b0000;fill-opacity:1;stroke:none;stroke-width:2.97;stroke-linecap:round;stroke-linejoin:round;stroke-dasharray:none;stroke-opacity:1"
     id="rect35"
     width="46.333332"
     height="46"
     x="67.333336"
     y="28" /><rect
     style="fill:#2b0000;fill-opacity:1;stroke:none;stroke-width:2.97;stroke-linecap:round;stroke-linejoin:round;stroke-dasharray:none;stroke-opacity:1"
     id="rect36"
     width="38"
     height="49.333332"
     x="190"
     y="225.33334" /><rect
     style="fill:#2b0000;fill-opacity:1;stroke:none;stroke-width:9.26287;stroke-linecap:round;stroke-linejoin:round;stroke-dasharray:none;stroke-opacity:1"
     id="rect37"
     width="130.39528"
     height="139.843"
     x="84.876793"
     y="78.255135" /></g></g><g
     id="g47"
     style="display:inline;fill:#2b0000;stroke:#ffffff;stroke-width:2.97;stroke-linecap:round;stroke-linejoin:round;stroke-dasharray:none;stroke-opacity:1"
     transform="matrix(-0.65742696,0.25308529,0.27063638,0.70301855,173.28321,60.978499)">
	
	
	
<g
   id="g46"
   style="fill:#2b0000;stroke:#ffffff;stroke-width:2.97;stroke-linecap:round;stroke-linejoin:round;stroke-dasharray:none;stroke-opacity:1"
   transform="translate(1.298256,0.355447)"><path
     d="m 255.5,20 c 0,-11.046 -8.954,-20 -20,-20 h -174 c -11.046,0 -20,8.954 -20,20 v 257 c 0,11.046 8.954,20 20,20 h 174 c 11.046,0 20,-8.954 20,-20 z M 94.379,59 H 82.875 l -2.229,7 H 74.005 L 85.283,33 h 6.731 l 11.232,33 h -6.641 z m 85.447,123.298 c -10.133,3.238 -19.307,0.113 -25.128,-5.942 0.457,8.457 1.704,18.841 4.947,24.645 H 138.02 c 3.243,-5.804 4.49,-16.188 4.947,-24.645 -5.821,6.056 -14.996,9.181 -25.128,5.942 -17.925,-5.729 -36.695,-44.207 30.993,-87.401 67.69,43.194 48.92,81.671 30.994,87.401 z m 37.281,81.702 -2.229,-7 h -11.504 l -2.229,7 h -6.641 l 11.278,-33 h 6.731 l 11.232,33 z"
     id="path44"
     style="fill:#2b0000;fill-opacity:1;stroke:#ffffff;stroke-width:2.97;stroke-linecap:round;stroke-linejoin:round;stroke-dasharray:none;stroke-opacity:1" /><rect
     style="fill:#2b0000;fill-opacity:1;stroke:none;stroke-width:2.97;stroke-linecap:round;stroke-linejoin:round;stroke-dasharray:none;stroke-opacity:1"
     id="rect44"
     width="46.333332"
     height="46"
     x="67.333336"
     y="28" /><rect
     style="fill:#2b0000;fill-opacity:1;stroke:none;stroke-width:2.97;stroke-linecap:round;stroke-linejoin:round;stroke-dasharray:none;stroke-opacity:1"
     id="rect45"
     width="38"
     height="49.333332"
     x="190"
     y="225.33334" /><rect
     style="fill:#2b0000;fill-opacity:1;stroke:none;stroke-width:9.26287;stroke-linecap:round;stroke-linejoin:round;stroke-dasharray:none;stroke-opacity:1"
     id="rect46"
     width="130.39528"
     height="139.843"
     x="84.876793"
     y="78.255135" /></g></g><g
     id="g50"
     style="display:none;fill:#2b0000;stroke:#ffffff;stroke-width:2.97;stroke-linecap:round;stroke-linejoin:round;stroke-dasharray:none;stroke-opacity:1"
     transform="matrix(-0.65742696,0.25308529,0.27063638,0.70301855,243.82071,60.978499)">
	
	
	
<g
   id="g49"
   style="fill:#2b0000;stroke:#ffffff;stroke-width:2.97;stroke-linecap:round;stroke-linejoin:round;stroke-dasharray:none;stroke-opacity:1"
   transform="translate(1.298256,0.355447)"><path
     d="m 255.5,20 c 0,-11.046 -8.954,-20 -20,-20 h -174 c -11.046,0 -20,8.954 -20,20 v 257 c 0,11.046 8.954,20 20,20 h 174 c 11.046,0 20,-8.954 20,-20 z M 94.379,59 H 82.875 l -2.229,7 H 74.005 L 85.283,33 h 6.731 l 11.232,33 h -6.641 z m 85.447,123.298 c -10.133,3.238 -19.307,0.113 -25.128,-5.942 0.457,8.457 1.704,18.841 4.947,24.645 H 138.02 c 3.243,-5.804 4.49,-16.188 4.947,-24.645 -5.821,6.056 -14.996,9.181 -25.128,5.942 -17.925,-5.729 -36.695,-44.207 30.993,-87.401 67.69,43.194 48.92,81.671 30.994,87.401 z m 37.281,81.702 -2.229,-7 h -11.504 l -2.229,7 h -6.641 l 11.278,-33 h 6.731 l 11.232,33 z"
     id="path47"
     style="fill:#2b0000;fill-opacity:1;stroke:#ffffff;stroke-width:2.97;stroke-linecap:round;stroke-linejoin:round;stroke-dasharray:none;stroke-opacity:1" /><rect
     style="fill:#2b0000;fill-opacity:1;stroke:none;stroke-width:2.97;stroke-linecap:round;stroke-linejoin:round;stroke-dasharray:none;stroke-opacity:1"
     id="rect47"
     width="46.333332"
     height="46"
     x="67.333336"
     y="28" /><rect
     style="fill:#2b0000;fill-opacity:1;stroke:none;stroke-width:2.97;stroke-linecap:round;stroke-linejoin:round;stroke-dasharray:none;stroke-opacity:1"
     id="rect48"
     width="38"
     height="49.333332"
     x="190"
     y="225.33334" /><rect
     style="fill:#2b0000;fill-opacity:1;stroke:none;stroke-width:9.26287;stroke-linecap:round;stroke-linejoin:round;stroke-dasharray:none;stroke-opacity:1"
     id="rect49"
     width="130.39528"
     height="139.843"
     x="84.876793"
     y="78.255135" /></g></g><g
     id="g53"
     style="display:none;fill:#2b0000;stroke:#ffffff;stroke-width:2.97;stroke-linecap:round;stroke-linejoin:round;stroke-dasharray:none;stroke-opacity:1"
     transform="matrix(0.65742696,0.25308529,-0.27063638,0.70301855,127.42928,60.978499)">
	
	
	
<g
   id="g52"
   style="fill:#2b0000;stroke:#ffffff;stroke-width:2.97;stroke-linecap:round;stroke-linejoin:round;stroke-dasharray:none;stroke-opacity:1"
   transform="translate(1.298256,0.355447)"><path
     d="m 255.5,20 c 0,-11.046 -8.954,-20 -20,-20 h -174 c -11.046,0 -20,8.954 -20,20 v 257 c 0,11.046 8.954,20 20,20 h 174 c 11.046,0 20,-8.954 20,-20 z M 94.379,59 H 82.875 l -2.229,7 H 74.005 L 85.283,33 h 6.731 l 11.232,33 h -6.641 z m 85.447,123.298 c -10.133,3.238 -19.307,0.113 -25.128,-5.942 0.457,8.457 1.704,18.841 4.947,24.645 H 138.02 c 3.243,-5.804 4.49,-16.188 4.947,-24.645 -5.821,6.056 -14.996,9.181 -25.128,5.942 -17.925,-5.729 -36.695,-44.207 30.993,-87.401 67.69,43.194 48.92,81.671 30.994,87.401 z m 37.281,81.702 -2.229,-7 h -11.504 l -2.229,7 h -6.641 l 11.278,-33 h 6.731 l 11.232,33 z"
     id="path50"
     style="fill:#2b0000;fill-opacity:1;stroke:#ffffff;stroke-width:2.97;stroke-linecap:round;stroke-linejoin:round;stroke-dasharray:none;stroke-opacity:1" /><rect
     style="fill:#2b0000;fill-opacity:1;stroke:none;stroke-width:2.97;stroke-linecap:round;stroke-linejoin:round;stroke-dasharray:none;stroke-opacity:1"
     id="rect50"
     width="46.333332"
     height="46"
     x="67.333336"
     y="28" /><rect
     style="fill:#2b0000;fill-opacity:1;stroke:none;stroke-width:2.97;stroke-linecap:round;stroke-linejoin:round;stroke-dasharray:none;stroke-opacity:1"
     id="rect51"
     width="38"
     height="49.333332"
     x="190"
     y="225.33334" /><rect
     style="fill:#2b0000;fill-opacity:1;stroke:none;stroke-width:9.26287;stroke-linecap:round;stroke-linejoin:round;stroke-dasharray:none;stroke-opacity:1"
     id="rect52"
     width="130.39528"
     height="139.843"
     x="84.876793"
     y="78.255135" /></g></g><g
     id="g56"
     style="display:inline;fill:#2b0000;stroke:#ffffff;stroke-width:2.97;stroke-linecap:round;stroke-linejoin:round;stroke-dasharray:none;stroke-opacity:1"
     transform="matrix(0.65742696,0.25308529,-0.27063638,0.70301855,197.96678,60.978499)">
	
	
	
<g
   id="g55"
   style="fill:#2b0000;stroke:#ffffff;stroke-width:2.97;stroke-linecap:round;stroke-linejoin:round;stroke-dasharray:none;stroke-opacity:1"
   transform="translate(1.298256,0.355447)"><path
     d="m 255.5,20 c 0,-11.046 -8.954,-20 -20,-20 h -174 c -11.046,0 -20,8.954 -20,20 v 257 c 0,11.046 8.954,20 20,20 h 174 c 11.046,0 20,-8.954 20,-20 z M 94.379,59 H 82.875 l -2.229,7 H 74.005 L 85.283,33 h 6.731 l 11.232,33 h -6.641 z m 85.447,123.298 c -10.133,3.238 -19.307,0.113 -25.128,-5.942 0.457,8.457 1.704,18.841 4.947,24.645 H 138.02 c 3.243,-5.804 4.49,-16.188 4.947,-24.645 -5.821,6.056 -14.996,9.181 -25.128,5.942 -17.925,-5.729 -36.695,-44.207 30.993,-87.401 67.69,43.194 48.92,81.671 30.994,87.401 z m 37.281,81.702 -2.229,-7 h -11.504 l -2.229,7 h -6.641 l 11.278,-33 h 6.731 l 11.232,33 z"
     id="path53"
     style="fill:#2b0000;fill-opacity:1;stroke:#ffffff;stroke-width:2.97;stroke-linecap:round;stroke-linejoin:round;stroke-dasharray:none;stroke-opacity:1" /><rect
     style="fill:#2b0000;fill-opacity:1;stroke:none;stroke-width:2.97;stroke-linecap:round;stroke-linejoin:round;stroke-dasharray:none;stroke-opacity:1"
     id="rect53"
     width="46.333332"
     height="46"
     x="67.333336"
     y="28" /><rect
     style="fill:#2b0000;fill-opacity:1;stroke:none;stroke-width:2.97;stroke-linecap:round;stroke-linejoin:round;stroke-dasharray:none;stroke-opacity:1"
     id="rect54"
     width="38"
     height="49.333332"
     x="190"
     y="225.33334" /><rect
     style="fill:#2b0000;fill-opacity:1;stroke:none;stroke-width:9.26287;stroke-linecap:round;stroke-linejoin:round;stroke-dasharray:none;stroke-opacity:1"
     id="rect55"
     width="130.39528"
     height="139.843"
     x="84.876793"
     y="78.255135" /></g></g></g><metadata
   id="metadata8"><rdf:RDF><cc:Work
       rdf:about=""><dc:title>Royal Flush Logo</dc:title><dc:creator><cc:Agent><dc:title>Francisco Enguix</dc:title></cc:Agent></dc:creator></cc:Work></rdf:RDF></metadata><g
   id="layer1"
   style="display:inline"><g
     id="g17"
     style="display:none;fill:#2b0000;stroke:#ffffff;stroke-width:2.97;stroke-linecap:round;stroke-linejoin:round;stroke-dasharray:none;stroke-opacity:1"
     transform="matrix(0.86489074,0,0,0.92486964,56.065875,47.953117)">
	
	
	
<g
   id="g16"
   style="fill:#2b0000;stroke:#ffffff;stroke-width:2.97;stroke-linecap:round;stroke-linejoin:round;stroke-dasharray:none;stroke-opacity:1"
   transform="translate(1.298256,0.355447)"><path
     d="m 255.5,20 c 0,-11.046 -8.954,-20 -20,-20 h -174 c -11.046,0 -20,8.954 -20,20 v 257 c 0,11.046 8.954,20 20,20 h 174 c 11.046,0 20,-8.954 20,-20 z M 94.379,59 H 82.875 l -2.229,7 H 74.005 L 85.283,33 h 6.731 l 11.232,33 h -6.641 z m 85.447,123.298 c -10.133,3.238 -19.307,0.113 -25.128,-5.942 0.457,8.457 1.704,18.841 4.947,24.645 H 138.02 c 3.243,-5.804 4.49,-16.188 4.947,-24.645 -5.821,6.056 -14.996,9.181 -25.128,5.942 -17.925,-5.729 -36.695,-44.207 30.993,-87.401 67.69,43.194 48.92,81.671 30.994,87.401 z m 37.281,81.702 -2.229,-7 h -11.504 l -2.229,7 h -6.641 l 11.278,-33 h 6.731 l 11.232,33 z"
     id="path13"
     style="fill:#2b0000;fill-opacity:1;stroke:#ffffff;stroke-width:2.97;stroke-linecap:round;stroke-linejoin:round;stroke-dasharray:none;stroke-opacity:1" /><rect
     style="fill:#2b0000;fill-opacity:1;stroke:none;stroke-width:2.97;stroke-linecap:round;stroke-linejoin:round;stroke-dasharray:none;stroke-opacity:1"
     id="rect14"
     width="46.333332"
     height="46"
     x="67.333336"
     y="28" /><rect
     style="fill:#2b0000;fill-opacity:1;stroke:none;stroke-width:2.97;stroke-linecap:round;stroke-linejoin:round;stroke-dasharray:none;stroke-opacity:1"
     id="rect15"
     width="38"
     height="49.333332"
     x="190"
     y="225.33334" /><rect
     style="fill:#2b0000;fill-opacity:1;stroke:none;stroke-width:9.26287;stroke-linecap:round;stroke-linejoin:round;stroke-dasharray:none;stroke-opacity:1"
     id="rect16"
     width="130.39528"
     height="139.843"
     x="84.876793"
     y="78.255135" /></g></g><g
     id="g22"
     style="display:inline;fill:#2b0000;stroke:#ffffff;stroke-width:2.97;stroke-linecap:round;stroke-linejoin:round;stroke-dasharray:none;stroke-opacity:1"
     transform="matrix(0.80639972,0.15754992,-0.16847578,0.86232235,127.03127,33.662917)">
	
	
	
<g
   id="g21"
   style="fill:#2b0000;stroke:#ffffff;stroke-width:2.97;stroke-linecap:round;stroke-linejoin:round;stroke-dasharray:none;stroke-opacity:1"
   transform="translate(1.298256,0.355447)"><path
     d="m 255.5,20 c 0,-11.046 -8.954,-20 -20,-20 h -174 c -11.046,0 -20,8.954 -20,20 v 257 c 0,11.046 8.954,20 20,20 h 174 c 11.046,0 20,-8.954 20,-20 z M 94.379,59 H 82.875 l -2.229,7 H 74.005 L 85.283,33 h 6.731 l 11.232,33 h -6.641 z m 85.447,123.298 c -10.133,3.238 -19.307,0.113 -25.128,-5.942 0.457,8.457 1.704,18.841 4.947,24.645 H 138.02 c 3.243,-5.804 4.49,-16.188 4.947,-24.645 -5.821,6.056 -14.996,9.181 -25.128,5.942 -17.925,-5.729 -36.695,-44.207 30.993,-87.401 67.69,43.194 48.92,81.671 30.994,87.401 z m 37.281,81.702 -2.229,-7 h -11.504 l -2.229,7 h -6.641 l 11.278,-33 h 6.731 l 11.232,33 z"
     id="path18"
     style="fill:#2b0000;fill-opacity:1;stroke:#ffffff;stroke-width:2.97;stroke-linecap:round;stroke-linejoin:round;stroke-dasharray:none;stroke-opacity:1" /><rect
     style="fill:#2b0000;fill-opacity:1;stroke:none;stroke-width:2.97;stroke-linecap:round;stroke-linejoin:round;stroke-dasharray:none;stroke-opacity:1"
     id="rect19"
     width="46.333332"
     height="46"
     x="67.333336"
     y="28" /><rect
     style="fill:#2b0000;fill-opacity:1;stroke:none;stroke-width:2.97;stroke-linecap:round;stroke-linejoin:round;stroke-dasharray:none;stroke-opacity:1"
     id="rect20"
     width="38"
     height="49.333332"
     x="190"
     y="225.33334" /><rect
     style="fill:#2b0000;fill-opacity:1;stroke:none;stroke-width:9.26287;stroke-linecap:round;stroke-linejoin:round;stroke-dasharray:none;stroke-opacity:1"
     id="rect21"
     width="130.39528"
     height="139.843"
     x="84.876793"
     y="78.255135" /></g></g><g
     id="g25"
     style="display:inline;fill:#2b0000;stroke:#ffffff;stroke-width:2.97;stroke-linecap:round;stroke-linejoin:round;stroke-dasharray:none;stroke-opacity:1"
     transform="matrix(-0.80639972,0.15754992,0.16847578,0.86232235,244.21873,33.662917)">
	
	
	
<g
   id="g24"
   style="fill:#2b0000;stroke:#ffffff;stroke-width:2.97;stroke-linecap:round;stroke-linejoin:round;stroke-dasharray:none;stroke-opacity:1"
   transform="translate(1.298256,0.355447)"><path
     d="m 255.5,20 c 0,-11.046 -8.954,-20 -20,-20 h -174 c -11.046,0 -20,8.954 -20,20 v 257 c 0,11.046 8.954,20 20,20 h 174 c 11.046,0 20,-8.954 20,-20 z M 94.379,59 H 82.875 l -2.229,7 H 74.005 L 85.283,33 h 6.731 l 11.232,33 h -6.641 z m 85.447,123.298 c -10.133,3.238 -19.307,0.113 -25.128,-5.942 0.457,8.457 1.704,18.841 4.947,24.645 H 138.02 c 3.243,-5.804 4.49,-16.188 4.947,-24.645 -5.821,6.056 -14.996,9.181 -25.128,5.942 -17.925,-5.729 -36.695,-44.207 30.993,-87.401 67.69,43.194 48.92,81.671 30.994,87.401 z m 37.281,81.702 -2.229,-7 h -11.504 l -2.229,7 h -6.641 l 11.278,-33 h 6.731 l 11.232,33 z"
     id="path22"
     style="fill:#2b0000;fill-opacity:1;stroke:#ffffff;stroke-width:2.97;stroke-linecap:round;stroke-linejoin:round;stroke-dasharray:none;stroke-opacity:1" /><rect
     style="fill:#2b0000;fill-opacity:1;stroke:none;stroke-width:2.97;stroke-linecap:round;stroke-linejoin:round;stroke-dasharray:none;stroke-opacity:1"
     id="rect22"
     width="46.333332"
     height="46"
     x="67.333336"
     y="28" /><rect
     style="fill:#2b0000;fill-opacity:1;stroke:none;stroke-width:2.97;stroke-linecap:round;stroke-linejoin:round;stroke-dasharray:none;stroke-opacity:1"
     id="rect23"
     width="38"
     height="49.333332"
     x="190"
     y="225.33334" /><rect
     style="fill:#2b0000;fill-opacity:1;stroke:none;stroke-width:9.26287;stroke-linecap:round;stroke-linejoin:round;stroke-dasharray:none;stroke-opacity:1"
     id="rect24"
     width="130.39528"
     height="139.843"
     x="84.876793"
     y="78.255135" /></g></g></g><g
   id="g13"
   style="display:inline;stroke:#ffffff;stroke-width:2.97;stroke-linecap:round;stroke-linejoin:round;stroke-dasharray:none;stroke-opacity:1"
   transform="translate(35.826744,36.769553)">
	
	
	
<g
   id="g12"
   style="stroke:#ffffff;stroke-width:2.97;stroke-linecap:round;stroke-linejoin:round;stroke-dasharray:none;stroke-opacity:1"
   transform="translate(1.298256,0.355447)"><path
     d="m 255.5,20 c 0,-11.046 -8.954,-20 -20,-20 h -174 c -11.046,0 -20,8.954 -20,20 v 257 c 0,11.046 8.954,20 20,20 h 174 c 11.046,0 20,-8.954 20,-20 z M 94.379,59 H 82.875 l -2.229,7 H 74.005 L 85.283,33 h 6.731 l 11.232,33 h -6.641 z m 85.447,123.298 c -10.133,3.238 -19.307,0.113 -25.128,-5.942 0.457,8.457 1.704,18.841 4.947,24.645 H 138.02 c 3.243,-5.804 4.49,-16.188 4.947,-24.645 -5.821,6.056 -14.996,9.181 -25.128,5.942 -17.925,-5.729 -36.695,-44.207 30.993,-87.401 67.69,43.194 48.92,81.671 30.994,87.401 z m 37.281,81.702 -2.229,-7 h -11.504 l -2.229,7 h -6.641 l 11.278,-33 h 6.731 l 11.232,33 z"
     id="path11"
     style="fill:#000000;fill-opacity:1;stroke:#ffffff;stroke-width:2.97;stroke-linecap:round;stroke-linejoin:round;stroke-dasharray:none;stroke-opacity:1" /><rect
     style="fill:#000000;fill-opacity:1;stroke:none;stroke-width:2.97;stroke-linecap:round;stroke-linejoin:round;stroke-dasharray:none;stroke-opacity:1"
     id="rect11"
     width="46.333332"
     height="46"
     x="67.333336"
     y="28" /><rect
     style="fill:#000000;fill-opacity:1;stroke:none;stroke-width:2.97;stroke-linecap:round;stroke-linejoin:round;stroke-dasharray:none;stroke-opacity:1"
     id="rect12"
     width="38"
     height="49.333332"
     x="190"
     y="225.33334" /><path
     style="fill:#f9f9f9;fill-opacity:1;stroke:none;stroke-width:10.1582;stroke-linecap:round;stroke-linejoin:round;stroke-dasharray:none;stroke-opacity:1"
     d="m 469.05069,642.62151 c -0.3778,-0.98453 0.19027,-3.48635 1.26238,-5.55957 3.3292,-6.43797 7.07348,-21.83884 9.12683,-37.54022 1.0825,-8.27756 1.76364,-15.25465 1.51365,-15.50465 -0.24999,-0.24999 -3.00077,1.24139 -6.11284,3.31418 -9.52432,6.34367 -18.44451,9.08343 -31.85648,9.78443 -14.11085,0.73755 -22.09,-0.75188 -34.0066,-6.34783 -16.67549,-7.8307 -32.07218,-28.25039 -37.58225,-49.84307 -2.81451,-11.0294 -2.58498,-31.14349 0.50263,-44.04551 10.95206,-45.76482 51.65773,-93.64837 116.12728,-136.60474 l 12.49399,-8.32481 4.0131,2.30746 c 24.12499,13.87144 64.79942,47.35932 83.72747,68.9341 30.09278,34.3007 44.01079,65.0848 44.0668,97.46774 0.0266,15.39114 -2.06695,24.31933 -9.04394,38.56879 -11.94167,24.38904 -33.62713,38.14774 -60.1875,38.18695 -15.24772,0.0225 -25.74852,-3.20483 -39.12048,-12.02341 l -3.61739,-2.3856 0.87271,8.79926 c 1.36753,13.78823 5.59948,33.43664 9.07172,42.11891 1.74297,4.35827 2.81257,8.50092 2.37687,9.20588 -0.49813,0.80601 -12.32631,1.28177 -31.8666,1.28177 -25.56615,0 -31.19621,-0.31731 -31.76135,-1.79006 z"
     id="path17"
     transform="matrix(0.37125,0,0,0.37125,-37.125,-37.125)" /></g></g></svg>
